<svg width="60" height="60" viewBox="0 0 60 60" fill="none" xmlns="http://www.w3.org/2000/svg">
<path d="M29.4254 60C29.0058 60 28.7022 59.993 28.5098 59.9875C28.3326 59.993 28.0283 60 27.6087 60C25.5217 59.9993 22.2502 59.8423 18.5119 59.1066C13.2076 58.061 9.11422 56.4527 5.99556 54.1899C5.95735 54.1621 5.88856 54.1156 5.79894 54.0545L5.74823 54.0197C5.55648 53.8884 5.2904 53.7092 4.99027 53.4612C4.69154 53.2159 4.43102 52.9651 4.19759 52.6935C3.7474 52.1752 3.38266 51.5618 3.14507 50.9177C2.87204 50.1987 2.73725 49.4067 2.73725 48.5626V13.9002L1.87717 13.4216C1.56454 13.2472 1.28178 13.0332 1.03723 12.788C0.673194 12.4288 0.377932 11.9668 0.209111 11.4916C0.0687751 11.1074 0 10.701 0 10.2876V6.42839C0 5.79687 0.18688 3.73837 2.59135 3.73837H15.0959C15.7031 3.36113 21.3158 0 28.3729 0H28.5167H28.6585C35.7149 0 41.3283 3.36044 41.9362 3.73837H54.44C56.8473 3.73837 57.0321 5.79687 57.0321 6.42839V10.2876C57.0321 10.701 56.9619 11.1074 56.8223 11.4916C56.6535 11.9668 56.3596 12.4288 55.9949 12.7894C55.7517 13.0332 55.4682 13.2472 55.1549 13.4216L54.2934 13.9002V48.5626C54.2962 49.4067 54.1601 50.198 53.8891 50.9177C53.6501 51.5618 53.2854 52.1752 52.8345 52.6935C52.6011 52.9658 52.3406 53.2166 52.0439 53.4612C51.7417 53.7085 51.4784 53.8877 51.2832 54.0197L51.2331 54.0545C51.1421 54.1156 51.0741 54.1621 51.0365 54.1899C47.9186 56.4527 43.8245 58.061 38.5202 59.1066C34.7839 59.843 31.5124 60 29.4254 60Z" fill="#DFD4A6"/>
<path d="M40.348 7.48911V10.1006C40.348 10.3389 40.5926 10.5362 40.7051 10.5994C42.5733 11.652 42.9589 11.8791 42.9589 12.3717V44.3656C42.9589 45.441 42.5524 45.7342 41.7611 46.124C39.7242 47.1279 35.214 48.9258 28.5515 48.9258C21.8869 48.9258 17.3781 47.1279 15.3411 46.124C14.5512 45.7335 14.1413 45.441 14.1413 44.3656V12.3724C14.1413 11.884 14.5213 11.6318 16.3554 10.6001C16.4812 10.5286 16.7535 10.3855 16.7535 10.0423V7.54818C16.7535 7.20984 16.5597 6.60403 15.9907 6.60403H3.8773C3.3097 6.60403 3.1131 7.01948 3.1131 7.54818V10.1013C3.1131 10.4132 3.46046 10.5119 3.61677 10.6001C5.355 11.5804 5.69959 11.893 5.69959 12.3724V48.1887C5.69959 50.2514 6.35194 50.8398 7.08767 51.3734C15.3717 57.3898 28.5508 56.7763 28.5508 56.7763C28.5508 56.7763 41.1046 57.3898 49.3886 51.3734C50.1236 50.8398 51.4013 50.2514 51.4013 48.1887V12.3724C51.4013 11.8771 51.9049 11.6645 53.8071 10.6001C53.9127 10.5397 54.1406 10.4 54.1406 10.1013V7.48981C54.1406 7.15147 53.8954 6.57275 53.3278 6.57275H41.1595C40.5926 6.57206 40.348 7.15077 40.348 7.48911Z" fill="#8F141B"/>
<path d="M22.0147 22.3641C20.1653 21.2768 19.4247 19.7984 19.1288 18.7501C18.8078 17.6121 18.9245 16.7395 18.9294 16.7034L19.2365 16.7465C19.2323 16.7798 18.8162 20.1215 22.1731 22.0952L22.0147 22.3641Z" fill="#8F141B"/>
<path d="M37.1044 20.4967L36.8508 20.3154C38.0992 18.564 37.8206 16.6771 37.8178 16.6583L38.127 16.616C38.1395 16.6952 38.4257 18.6453 37.1044 20.4967Z" fill="#8F141B"/>
<path d="M29.7429 45.6947C28.6341 45.6947 27.6059 45.4655 26.6847 45.0111V45.1834C26.6847 45.314 26.5791 45.4176 26.4499 45.4176H20.0743C19.9465 45.4176 19.8395 45.314 19.8395 45.1834V35.3467C19.8395 35.2182 19.9465 35.1133 20.0743 35.1133H24.9229C24.3206 34.652 23.3674 33.9197 22.8317 33.4938C21.9321 32.7782 19.8388 30.8059 19.8388 27.9408C19.8388 24.4012 21.461 22.4726 22.8199 21.4756C24.7186 20.0855 26.7743 19.9778 27.3607 19.9778C28.4709 19.9778 29.4963 20.207 30.4189 20.6635V20.4891C30.4189 20.3599 30.5231 20.2557 30.6524 20.2557H37.0286C37.1578 20.2557 37.2634 20.3599 37.2634 20.4891V30.3252C37.2634 30.4558 37.1578 30.56 37.0286 30.56H32.1752C32.7102 30.9726 33.5487 31.6201 34.2698 32.1773C35.7156 33.2972 37.2641 35.3453 37.2641 37.7317C37.2641 41.3353 35.6371 43.2639 34.2719 44.2462C32.4093 45.5898 30.3342 45.6947 29.7429 45.6947ZM26.4499 44.3873C26.4909 44.3873 26.5298 44.3977 26.5659 44.4178C27.5177 44.9625 28.557 45.2265 29.7429 45.2265C30.2994 45.2265 32.2488 45.1278 33.9982 43.8655C35.2751 42.9464 36.7945 41.1359 36.7945 37.731C36.7945 35.5148 35.3411 33.6001 33.9829 32.5483C32.8185 31.6451 31.3464 30.5093 31.3464 30.5093C31.2672 30.4488 31.2352 30.3446 31.2672 30.2487C31.3005 30.1542 31.3881 30.0903 31.4902 30.0903H36.7945V20.7225H30.8893V21.0498C30.8893 21.1352 30.8448 21.2109 30.7712 21.2533C30.6989 21.2943 30.6114 21.2957 30.5377 21.2533C29.5873 20.7107 28.548 20.4453 27.3614 20.4453C26.8126 20.4453 24.8826 20.5482 23.0978 21.8536C21.8251 22.7838 20.3078 24.5964 20.3078 27.9394C20.3078 30.601 22.2766 32.4524 23.1235 33.1256C23.9398 33.7759 25.7385 35.1466 25.7573 35.1612C25.8372 35.2209 25.8677 35.3252 25.8372 35.421C25.8038 35.5162 25.7142 35.5801 25.6148 35.5801H20.3078V44.9479H26.2151V44.62C26.2151 44.5359 26.2596 44.4602 26.3311 44.4171C26.3679 44.3977 26.4089 44.3873 26.4499 44.3873Z" fill="#8F141B"/>
<path d="M29.743 44.1045C28.0402 44.1045 27.0787 43.441 26.5625 43.0839L26.4256 42.9873C26.1081 42.7629 25.9511 42.6546 25.6315 42.6907C25.1869 42.7393 25.0938 43.0165 25.0938 43.2409V43.6848C25.0938 43.7626 25.0306 43.8259 24.9521 43.8259H21.575C21.4958 43.8259 21.4326 43.7626 21.4326 43.6848V36.8438C21.4326 36.766 21.4958 36.7028 21.575 36.7028H26.5305C26.5611 36.7028 26.5937 36.7146 26.6187 36.7347C26.6299 36.7451 27.8297 37.7185 28.2076 37.9984L28.2861 38.0589C28.4737 38.2041 28.7599 38.4222 29.0719 38.4222C29.306 38.4222 29.5248 38.3062 29.7437 38.0637C29.9298 37.8616 30.0167 37.6434 30.0014 37.4156C29.9868 37.1696 29.8465 36.9216 29.6103 36.7174L23.8829 32.2933C22.9679 31.5742 21.4326 30.0521 21.4326 27.9387C21.4326 22.8991 25.3106 21.5659 27.3621 21.5659C29.0649 21.5659 30.0243 22.2308 30.5426 22.5872L30.6795 22.6831C30.9963 22.9061 31.1498 23.013 31.4735 22.979C31.9175 22.9304 32.0106 22.6525 32.0106 22.4281V21.9848C32.0106 21.9063 32.0745 21.8424 32.1516 21.8424H35.5308C35.6086 21.8424 35.6725 21.9063 35.6725 21.9848V28.8245C35.6725 28.9044 35.6086 28.9662 35.5308 28.9662H30.5752C30.5433 28.9662 30.512 28.9551 30.4856 28.935C30.4738 28.9266 29.2747 27.9505 28.8961 27.6719L28.8162 27.6108C28.6293 27.467 28.3452 27.2488 28.0332 27.2488C27.7984 27.2488 27.5803 27.3649 27.36 27.6052C27.1752 27.8081 27.0884 28.0262 27.103 28.2541C27.1176 28.5014 27.2579 28.7474 27.4941 28.9516L33.2222 33.3764C34.8493 34.6901 35.6725 36.1532 35.6725 37.7303C35.6725 40.084 34.8888 41.8403 33.3424 42.9547C31.864 44.0211 30.214 44.1045 29.743 44.1045Z" fill="#8F141B"/>
<path d="M28.4764 20.1902C24.9868 20.1902 22.6038 19.2315 21.2179 18.427C19.7117 17.551 19.0413 16.6812 19.0128 16.645L19.2608 16.4561C19.2879 16.4901 21.9494 19.8783 28.4764 19.8783C31.8883 19.8783 34.2128 18.9474 35.5599 18.1672C37.0217 17.321 37.6851 16.4644 37.6914 16.4561L37.9401 16.645C37.9109 16.6818 37.2405 17.5517 35.7336 18.427C34.3504 19.2315 31.9675 20.1902 28.4764 20.1902Z" fill="#8F141B"/>
<path d="M39.7951 41.7216C39.7951 41.4756 39.7923 40.999 39.7895 40.348C39.7853 38.7835 39.7777 36.2658 39.7749 33.4987V33.3111C39.7735 32.2641 39.7714 30.5613 39.7714 29.4852C40.6649 28.969 42.6421 26.75 39.67 18.8565C39.2754 17.7046 38.8203 17.0668 38.4785 16.732C38.9113 16.5249 39.2629 16.1283 39.4734 15.7642C39.9868 14.8798 40.1556 13.7203 40.2452 13.0971C40.2654 12.9651 40.2786 12.8609 40.2939 12.7963C40.4293 12.1481 40.2584 11.8153 39.6561 11.568L38.8829 11.2464V7.48645C38.8829 6.74586 38.9516 6.68473 39.1781 6.4777C39.2254 6.43185 39.283 6.38252 39.3442 6.3193C39.5866 6.07823 39.6895 5.78991 39.6346 5.50715C39.5866 5.26678 39.4025 4.92636 38.7974 4.66861C34.2261 2.67403 29.9798 2.52051 28.7863 2.52051C28.6571 2.52051 28.5841 2.52259 28.5827 2.52259C28.5716 2.52259 28.4973 2.52051 28.3674 2.52051C27.1752 2.52051 22.9304 2.67472 18.3597 4.66861C17.7505 4.92636 17.5684 5.26678 17.5226 5.50715C17.4656 5.79061 17.5684 6.07823 17.8102 6.3193C17.8665 6.37766 17.9214 6.4263 17.9693 6.47007C18.1972 6.68127 18.2576 6.73683 18.2576 7.48645L18.259 11.2436C18.0763 11.3158 17.7588 11.4458 17.4781 11.5701C16.8772 11.8341 16.7111 12.1551 16.848 12.7963C16.8612 12.8609 16.8772 12.9651 16.8959 13.0971C16.9856 13.7203 17.1551 14.8798 17.6678 15.7642C17.9471 16.2436 18.2486 16.5604 18.5807 16.7306C18.1854 17.1328 17.7907 17.8165 17.4246 18.753C14.9743 25.2577 15.7531 28.6112 17.3385 29.5095C17.3406 33.5042 17.3496 38.2006 17.3572 40.3529C17.3579 41.0025 17.3593 41.4763 17.3607 41.7223C17.1106 41.946 16.8272 42.4517 16.7445 42.9589C16.6535 43.5202 16.8021 44.0135 17.1738 44.3866C18.1596 45.3717 24.6603 46.6778 28.5765 46.6778C32.4941 46.6778 38.9919 45.3717 39.9798 44.3866C40.3508 44.0135 40.5009 43.5202 40.4113 42.9589C40.3293 42.4524 40.0438 41.9466 39.7951 41.7216ZM39.4789 12.0015C39.8729 12.1641 39.9257 12.2697 39.8367 12.7011C39.8208 12.7727 39.8027 12.8866 39.7825 13.0311C39.6978 13.6237 39.5359 14.7263 39.0691 15.5301C38.9565 15.7253 38.7877 15.9407 38.5848 16.1109C38.4521 16.2227 38.0686 16.4131 38.0256 15.7191C37.9964 15.2647 38.054 14.8131 38.2222 14.3699C38.6529 13.2368 38.8356 12.524 38.8745 11.7528L39.4789 12.0015ZM34.2483 9.62902C32.6643 9.55052 31.6576 10.3592 31.0629 11.1317C30.6037 11.4541 29.6721 11.9821 28.5223 11.9474C27.3371 11.9474 26.3992 11.3756 25.9685 11.0574C25.3661 10.3064 24.3734 9.55399 22.8387 9.62902C20.3557 9.74504 19.331 11.6625 18.976 12.9603C18.8467 12.4427 18.762 11.9432 18.73 11.4659L19.4255 11.2304C19.481 11.2123 19.5206 11.1581 19.5213 11.0977L19.5366 9.99931C20.0118 9.82354 22.3885 8.98499 25.9678 8.54592C26.04 8.53619 26.0907 8.47645 26.0907 8.40558V8.02141H30.76V8.40558C30.76 8.47783 30.8149 8.53897 30.8865 8.54592C30.9261 8.55078 34.7429 8.96 37.6393 10.0549V11.0831C37.6393 11.1414 37.674 11.1929 37.7268 11.2151C37.7379 11.2179 37.9547 11.3068 38.4146 11.4617C38.4104 11.9904 38.3465 12.4552 38.1826 13.0353C37.8283 11.7591 36.7966 9.74643 34.2483 9.62902ZM36.5986 11.1123C36.4617 11.3429 35.6669 12.5198 33.9899 12.2704C33.2798 12.1641 32.7935 11.7716 32.5052 11.3881C32.1905 10.974 32.2878 10.603 32.3815 10.5468C32.8602 10.255 33.4674 10.0611 34.2254 10.0952C35.2869 10.1466 36.0525 10.5641 36.5986 11.1123ZM30.4613 12.4983C30.4731 12.5024 31.5722 12.8762 32.4552 13.9614C32.5254 14.0628 32.3017 14.2608 32.1426 14.2191C31.782 14.1246 30.9893 13.953 30.4849 14.6123C30.4808 14.6186 30.4745 14.6228 30.471 14.6283C30.4217 14.6797 29.8103 15.2967 28.5869 15.2967C27.3433 15.2967 26.666 14.6512 26.6312 14.6165C25.9212 13.976 25.2425 14.1636 24.8381 14.2205C24.6436 14.249 24.4345 14.1073 24.5456 13.9461C25.4342 12.8748 26.6062 12.5045 26.6187 12.5004C26.7306 12.4538 26.7896 12.3302 26.7542 12.2141C26.7486 12.2044 26.6396 12.1071 26.3783 11.6576C26.9077 11.9459 27.6455 12.2287 28.5167 12.2287C28.5577 12.2294 28.5939 12.2294 28.6348 12.2294C29.4657 12.2294 30.1737 11.9682 30.6864 11.6945C30.4405 12.1252 30.3349 12.2044 30.3314 12.2141C30.2973 12.3281 30.3536 12.4496 30.4613 12.4983ZM24.6867 11.3033C24.399 11.7056 23.9044 12.1572 23.1409 12.2711C21.4256 12.5247 20.6336 11.2887 20.5204 11.0977C21.0574 10.5558 21.8126 10.1452 22.8581 10.0966C23.6126 10.0625 24.2073 10.2626 24.6908 10.5384C24.8597 10.6329 24.9236 10.9719 24.6867 11.3033ZM18.7245 7.40239C19.3553 7.17451 21.8424 6.29916 23.8134 5.96916C23.828 5.97819 23.8467 5.9893 23.8662 6.00181C25.2862 6.87023 26.8647 7.30861 28.5577 7.30861C30.2487 7.30861 31.8265 6.87023 33.2458 6.00181C33.2673 5.9893 33.2854 5.9775 33.3 5.96916C35.2716 6.29916 37.7803 7.17451 38.4146 7.40239C38.4146 7.43087 38.4139 7.45937 38.4139 7.48855V11.163C38.1763 11.0824 38.0117 11.022 37.9214 10.9879V9.95762C37.9214 9.89927 37.8859 9.84646 37.8303 9.82492C35.1897 8.80714 31.7417 8.36253 31.0428 8.27916V7.88108C31.0428 7.80188 30.9803 7.73864 30.9018 7.73864H25.949C25.8719 7.73864 25.8094 7.80188 25.8094 7.88108V8.28124C21.848 8.78144 19.3678 9.76031 19.3421 9.77073C19.2893 9.79227 19.2546 9.84299 19.2525 9.90066L19.2386 10.9955L18.7245 11.1699V7.48785C18.7259 7.45867 18.7245 7.43087 18.7245 7.40239ZM18.1416 5.9907C18.0673 5.91567 17.9478 5.76629 17.9804 5.59747C18.0172 5.41406 18.2152 5.23968 18.5466 5.09934C23.1506 3.09017 27.5365 2.98875 28.3681 2.98875C28.4987 2.98875 28.5668 2.99014 28.5855 2.99014C28.5876 2.99014 28.6578 2.98875 28.7863 2.98875C29.6193 2.98875 34.0058 3.09018 38.6119 5.10074C38.9391 5.23969 39.1406 5.41476 39.1754 5.59747C39.208 5.76629 39.0899 5.91567 39.0149 5.9907C38.96 6.04628 38.9086 6.09213 38.862 6.13381C38.6161 6.3589 38.4931 6.51105 38.4424 6.91469C37.6198 6.62429 35.2022 5.80035 33.3 5.49397C33.2861 5.49258 33.2743 5.49257 33.2618 5.49257C33.1854 5.49257 33.1381 5.51896 33.0033 5.60233C31.6576 6.42559 30.1612 6.84175 28.5591 6.84175C26.9536 6.84175 25.4578 6.42559 24.1114 5.60233C23.9551 5.50576 23.9037 5.48146 23.8155 5.49397C21.9154 5.80035 19.5179 6.62151 18.7022 6.91469C18.6529 6.50549 18.5292 6.35126 18.2861 6.12756C18.243 6.08726 18.1944 6.0435 18.1416 5.9907ZM18.3243 15.9059C18.2389 15.7983 18.1555 15.6732 18.0721 15.5294C17.6053 14.7256 17.4441 13.623 17.3586 13.0304C17.3392 12.8859 17.3197 12.772 17.3058 12.6991C17.2162 12.2746 17.2669 12.1773 17.6678 11.9994C17.8762 11.9063 18.1075 11.8119 18.2854 11.7389C18.3667 12.5747 18.5855 13.4577 18.9336 14.3692C19.0823 14.7596 19.0996 15.2258 19.0468 15.7302C18.9857 16.295 18.5112 16.1408 18.3243 15.9059ZM39.6485 44.0558C38.9023 44.8048 32.772 46.2088 28.5772 46.2088C26.1296 46.2088 23.0221 45.7309 20.71 45.1827H20.0056V45.007C18.714 44.6693 17.772 44.3198 17.5059 44.0558C17.2495 43.7988 17.1481 43.4695 17.2016 43.0756C17.2718 42.5462 17.5997 42.1051 17.699 42.0488C17.7018 42.0467 17.7039 42.0439 17.7074 42.0439C18.036 42.1835 18.8321 42.5024 20.0062 42.8491V42.5524C18.903 42.2238 18.1464 41.9223 17.8297 41.7869C17.8297 41.5694 17.8283 41.0699 17.8255 40.3502C17.8213 39.0927 17.8158 37.1759 17.8116 35.0028C18.2187 35.0889 19.0836 35.2758 20.0056 35.4488V35.346L21.0532 35.2848C19.7777 35.0674 18.3118 34.8221 17.8116 34.7131C17.8116 34.3331 17.8102 33.9475 17.8102 33.5543C18.168 33.6501 20.6704 34.3018 24.2594 34.6512C24.5769 34.8965 24.8951 35.141 25.1653 35.346H25.5461C25.5461 35.346 24.0468 34.2031 23.1527 33.5022C23.0805 33.6036 23.0985 33.7425 23.1951 33.8203C23.3729 33.9614 23.5966 34.1364 23.837 34.3247C20.2584 33.9405 17.8734 33.2778 17.8415 33.2687C17.831 33.2673 17.822 33.268 17.8109 33.2673C17.8109 32.2968 17.8081 31.2936 17.8081 30.298C18.1068 30.0507 19.3372 29.9229 20.4752 29.9229C20.5481 29.9229 20.61 29.975 20.6524 29.9229C20.5898 29.7978 20.5315 29.7103 20.4766 29.5797L20.4752 29.4546C19.0906 29.4546 18.5598 29.5283 17.6643 29.1503C16.8799 28.8197 16.2846 27.7657 16.3457 25.2633C16.3756 24.0795 16.7243 22.615 16.7243 22.615C16.9723 21.534 17.3399 20.3085 17.8616 18.9232C18.2972 17.813 18.6856 17.285 18.9405 17.0328L19.3219 16.6014C19.5415 15.6058 19.6269 14.877 19.3699 14.2025C19.3407 14.1219 19.3122 14.0406 19.2837 13.9607C19.2837 13.5147 19.5185 12.2419 20.3571 11.2755C20.5523 11.5764 21.2985 12.5406 22.697 12.5406C22.8512 12.5406 23.011 12.5295 23.1763 12.5038C24.4338 12.3176 25.0069 11.3283 25.1952 10.9087C25.7878 11.4409 26.1081 11.8431 26.2373 12.162C25.8135 12.3718 24.8208 12.8102 24.0565 13.8072V13.8085C24.0552 13.8092 24.0552 13.8092 24.0552 13.8092C24.0482 13.8169 23.8843 14.0732 24.0385 14.2525V14.2539V14.2552C24.0892 14.3476 24.5533 14.8756 26.377 15.0063C26.6785 15.2807 27.4462 15.7642 28.5883 15.7642C29.7436 15.7642 30.4703 15.28 30.7475 15.0063C32.5941 14.8694 32.9116 14.2976 32.9644 14.2233C33.0728 14.0732 32.9818 13.8745 32.9339 13.8092C32.1731 12.8172 31.2463 12.3788 30.8483 12.1676C30.9775 11.8452 31.3061 11.4214 31.9237 10.8816C32.1016 11.2832 32.6685 12.3128 33.9537 12.5031C34.1225 12.5288 34.2823 12.54 34.4338 12.54C35.8128 12.54 36.5562 11.6027 36.7667 11.2894C37.6358 12.2822 37.872 13.5876 37.872 13.96L37.8748 13.9628C37.8463 14.0406 37.8178 14.1198 37.7852 14.2018C37.4851 14.9875 37.5101 15.8594 37.7296 16.6007L38.4716 17.4496C38.7043 17.7796 38.9753 18.2764 39.2288 19.0156C39.8221 20.5961 40.2126 21.9661 40.4662 23.1416C40.6572 24.0204 40.7663 25.4175 40.7663 25.4175C40.8476 27.4871 40.2383 28.7842 39.4553 29.1218C38.6223 29.4817 37.9193 29.4664 36.9849 29.4664C36.9744 29.4664 36.9675 29.4699 36.9585 29.4706V29.5762H36.9341C36.9341 29.7054 36.7709 29.809 36.9001 29.809C37.6963 29.809 38.5091 29.7923 39.3018 30.2973C39.3018 31.3415 39.3032 32.3475 39.3046 33.3604C38.1666 33.6668 36.9084 33.8975 35.6926 34.0711C35.7517 34.1538 35.8094 34.2414 35.8677 34.331C36.9015 34.1747 37.938 33.9725 38.869 33.762C39.2288 33.68 39.3053 33.8412 39.3053 34.2545C39.3053 34.6658 39.2393 34.7165 38.9176 34.7825C38.3333 34.9048 37.3447 35.1084 36.395 35.2758C36.4346 35.364 36.477 35.453 36.5131 35.5433C37.6664 35.3369 38.8551 35.0868 39.3067 34.991C39.3115 37.1571 39.3192 39.0718 39.3219 40.3494C39.3219 41.065 39.324 41.568 39.324 41.7855C38.8405 41.9869 37.3551 42.5622 35.173 43.0429C35.0632 43.1708 34.95 43.2937 34.8353 43.4049C37.2711 42.9012 38.9315 42.2572 39.4449 42.0411C39.4484 42.0439 39.4505 42.046 39.4546 42.0488C39.5554 42.1044 39.8819 42.5462 39.9541 43.0756C40.0076 43.4702 39.9048 43.7988 39.6485 44.0558ZM32.3287 16.2401C32.2878 16.2401 32.2502 16.2443 32.219 16.2505C30.9678 16.5048 28.7279 16.5117 28.4806 16.5117C28.2326 16.5117 25.9942 16.5048 24.7422 16.2505C24.7082 16.245 24.6714 16.2401 24.6318 16.2401C24.2698 16.2401 23.787 16.5333 23.6064 17.0793C23.498 17.3989 23.5695 17.7789 23.7974 18.095C24.0031 18.3799 24.2858 18.548 24.5547 18.548H28.4799H32.4038C32.6747 18.548 32.9547 18.3792 33.161 18.095C33.3889 17.7783 33.4605 17.3989 33.3549 17.0793C33.1728 16.534 32.69 16.2401 32.3287 16.2401ZM31.9967 16.7215C32.1023 16.7049 32.2044 16.6806 32.3016 16.6674C32.467 16.6444 32.7157 16.732 32.8039 16.9355C32.8213 16.9779 32.8081 17.078 32.565 17.1308C32.3927 17.1676 32.1599 17.1995 31.866 17.235L31.9967 16.7215ZM26.3096 16.8633C27.3232 16.9321 28.4806 16.9355 28.4806 16.9355C28.4806 16.9355 29.6367 16.9321 30.6496 16.8633L30.858 17.3239C30.1487 17.3767 29.3032 17.4038 28.4806 17.4038C27.6574 17.4038 26.8126 17.3767 26.1018 17.3239L26.3096 16.8633ZM24.1573 16.9355C24.2462 16.732 24.4928 16.6444 24.6589 16.6674C24.7568 16.6806 24.8583 16.7049 24.9639 16.7215L25.0945 17.235C24.7999 17.1995 24.5686 17.1676 24.3942 17.1308C24.1538 17.0773 24.1385 16.9779 24.1573 16.9355ZM24.5554 18.1249C24.4289 18.1249 24.2622 18.0131 24.1441 17.8463C24.0718 17.7484 24.026 17.6421 24.0017 17.5392C23.9655 17.3836 24.0836 17.3364 24.2733 17.3683C24.4838 17.4038 24.7728 17.4566 25.1633 17.5003L25.321 18.1249H24.5554ZM25.4766 17.7067C25.4307 17.5309 25.239 16.7612 25.239 16.7612C25.4946 16.7931 25.7656 16.8209 26.0379 16.8431C26.0379 16.8431 25.7079 17.5795 25.6489 17.7067C25.5829 17.8505 25.5245 17.8915 25.4766 17.7067ZM28.4806 18.1249H25.7427L25.9907 17.5733L25.9935 17.5747C26.732 17.6316 27.6178 17.6594 28.4806 17.6594C29.3435 17.6594 30.2272 17.6316 30.9678 17.5747V17.5733L31.2172 18.1249H28.4806ZM31.3117 17.7067C31.2533 17.5788 30.9219 16.8431 30.9219 16.8431C31.1949 16.8209 31.4673 16.7931 31.7222 16.7612C31.7222 16.7612 31.5305 17.5309 31.486 17.7067C31.4374 17.8915 31.377 17.8505 31.3117 17.7067ZM32.8165 17.8463C32.6983 18.0131 32.5316 18.1249 32.4052 18.1249H31.6403L31.7987 17.5003C32.1877 17.4566 32.4788 17.4038 32.6865 17.3683C32.8762 17.3364 32.9964 17.3836 32.9589 17.5392C32.9352 17.6421 32.8894 17.7484 32.8165 17.8463Z" fill="#8F141B"/>
</svg>
